<mxfile host="app.diagrams.net" modified="2021-08-20T01:51:12.963Z" agent="5.0 (Windows NT 10.0; Win64; x64) AppleWebKit/537.36 (KHTML, like Gecko) Chrome/92.0.4515.159 Safari/537.36" etag="AEBbY8wsbF5hVYjLL2zu" version="14.5.10" type="github">
  <diagram id="qgzoY71U_uNEXoNLiOwA" name="Page-1">
    <mxGraphModel dx="1038" dy="547" grid="1" gridSize="10" guides="1" tooltips="1" connect="1" arrows="1" fold="1" page="1" pageScale="1" pageWidth="827" pageHeight="1169" math="0" shadow="0">
      <root>
        <mxCell id="0" />
        <mxCell id="1" parent="0" />
        <mxCell id="S_w7cYX_M2y2eu49t_n5-1" value="浏览器" style="rounded=0;whiteSpace=wrap;html=1;" vertex="1" parent="1">
          <mxGeometry x="230" y="320" width="120" height="40" as="geometry" />
        </mxCell>
        <mxCell id="S_w7cYX_M2y2eu49t_n5-2" value="服务器" style="rounded=0;whiteSpace=wrap;html=1;" vertex="1" parent="1">
          <mxGeometry x="414" y="320" width="120" height="40" as="geometry" />
        </mxCell>
        <mxCell id="S_w7cYX_M2y2eu49t_n5-3" value="点击上传或下载" style="rounded=0;whiteSpace=wrap;html=1;" vertex="1" parent="1">
          <mxGeometry x="250" y="410" width="80" height="40" as="geometry" />
        </mxCell>
        <mxCell id="S_w7cYX_M2y2eu49t_n5-4" value="" style="endArrow=classic;html=1;exitX=1;exitY=0.5;exitDx=0;exitDy=0;" edge="1" parent="1" source="S_w7cYX_M2y2eu49t_n5-3">
          <mxGeometry width="50" height="50" relative="1" as="geometry">
            <mxPoint x="390" y="500" as="sourcePoint" />
            <mxPoint x="440" y="430" as="targetPoint" />
          </mxGeometry>
        </mxCell>
        <mxCell id="S_w7cYX_M2y2eu49t_n5-5" value="调用分布式文件系统接口进行数据存储" style="rounded=0;whiteSpace=wrap;html=1;" vertex="1" parent="1">
          <mxGeometry x="440" y="410" width="80" height="40" as="geometry" />
        </mxCell>
        <mxCell id="S_w7cYX_M2y2eu49t_n5-6" value="" style="endArrow=classic;html=1;exitX=0;exitY=1;exitDx=0;exitDy=0;" edge="1" parent="1" source="S_w7cYX_M2y2eu49t_n5-5">
          <mxGeometry width="50" height="50" relative="1" as="geometry">
            <mxPoint x="390" y="490" as="sourcePoint" />
            <mxPoint x="330" y="520" as="targetPoint" />
          </mxGeometry>
        </mxCell>
        <mxCell id="S_w7cYX_M2y2eu49t_n5-7" value="返回成功或失败提示" style="rounded=0;whiteSpace=wrap;html=1;" vertex="1" parent="1">
          <mxGeometry x="250" y="500" width="80" height="40" as="geometry" />
        </mxCell>
      </root>
    </mxGraphModel>
  </diagram>
</mxfile>
